<svg width="12" height="15" viewBox="0 0 12 15" fill="none" xmlns="http://www.w3.org/2000/svg">
<rect width="12" height="15" fill="#F5F5F5"/>
<g id="Wellness-Home" clip-path="url(#clip0_2158_709)">
<rect width="430" height="932" transform="translate(-25 -247)" fill="white"/>
<g id="Group 1707478038">
<rect id="Rectangle 3780" x="-9" y="-6" width="87" height="28" rx="14" fill="#228564"/>
<path id="Vector" d="M11.736 0.281C11.5734 0.1075 11.3485 0 11.1 0H9.60006C9.43413 0 9.30011 0.143333 9.30011 0.319667V0.959C9.30011 1.13567 9.43429 1.27867 9.60006 1.27867H10.8V2.87717V3.757C10.8 4.52767 10.3351 5.18317 9.95929 5.80233C9.36845 6.77583 8.03196 6.77583 7.44096 5.80267C7.05218 5.16267 6.60022 4.55533 6.60022 3.757V2.87717V1.27867H7.80019C7.96612 1.27867 8.10014 1.13567 8.10014 0.959V0.319667C8.10014 0.143333 7.96596 0 7.80003 0H6.30011C6.05161 0 5.82672 0.1075 5.66376 0.281C5.50081 0.4545 5.40009 0.694333 5.40009 0.959167V2.87733V3.0965C5.40009 4.2055 5.71537 5.23767 6.24678 6.19117C7.19371 7.88967 8.10014 8.46217 8.07512 9.38517C8.0587 9.97717 8.07512 10.5707 8.07512 11.1635C8.07512 12.5735 6.99823 13.7212 5.67518 13.7212H5.09998C3.77678 13.7212 2.70005 12.5735 2.70005 11.1635V8.85767C3.56722 8.58267 4.19997 7.72783 4.19997 6.71383C4.19997 5.478 3.25961 4.47583 2.09998 4.47583C0.940051 4.47583 0 5.478 0 6.71383C0 7.72783 0.632435 8.58267 1.49992 8.85767V11.1633C1.50039 13.2822 3.11182 15 5.10014 15H5.67534C7.66319 15 9.27524 13.2822 9.27524 11.1635V10.1288C9.27524 9.6405 9.26258 8.73867 9.46275 8.299C10.1296 7.73033 10.8876 7.1385 11.2875 6.27433C11.8528 5.34333 12 4.2055 12 3.09667V2.8775V0.959167C12 0.694333 11.899 0.454667 11.736 0.281ZM0.975395 6.71383C0.975395 6.05317 1.48022 5.515 2.1003 5.515C2.72022 5.515 3.2252 6.05317 3.2252 6.71383C3.2252 7.37483 2.72022 7.91267 2.1003 7.91267C1.48006 7.91283 0.975395 7.37483 0.975395 6.71383Z" fill="white"/>
</g>
</g>
<defs>
<clipPath id="clip0_2158_709">
<rect width="430" height="932" fill="white" transform="translate(-25 -247)"/>
</clipPath>
</defs>
</svg>
