<svg width="49" height="49" viewBox="0 0 49 49" fill="none" xmlns="http://www.w3.org/2000/svg">
<g id="Group 625954">
<circle id="Ellipse 24" cx="24.5" cy="24.5" r="24.5" fill="#7345B6"/>
<path id="light-bulb" d="M25.5643 12.9299C23.4002 12.7779 21.3398 13.4971 19.761 14.9591C18.2052 16.3995 17.3131 18.4365 17.3131 20.5473C17.3131 22.267 17.8818 23.8967 18.9581 25.2589C19.7435 26.2528 20.5068 27.3568 21.171 28.4592V30.4275C21.171 30.8529 21.5189 31.1993 21.9473 31.1993H28.016C28.4439 31.1993 28.7918 30.8529 28.7918 30.4275V28.5238C29.4922 27.3709 30.3247 26.1595 31.0356 25.2606C32.1681 23.8358 32.7506 22.047 32.6747 20.2233C32.5168 16.4053 29.3935 13.2021 25.5643 12.9299ZM30.2022 24.6072C29.4385 25.5729 28.5427 26.8812 27.8056 28.1067L27.7306 28.2322V30.1441H22.2323V28.17L22.1581 28.0458C21.4535 26.8634 20.6356 25.6744 19.7927 24.6081C18.8648 23.4328 18.3743 22.0292 18.3743 20.5481C18.3743 18.729 19.1435 16.9733 20.4843 15.7321C21.8456 14.4723 23.6235 13.8509 25.4889 13.9834C28.7872 14.2175 31.4781 16.9779 31.6147 20.2672C31.6806 21.8614 31.1927 23.3615 30.2022 24.6072ZM15.7827 22.9C15.7218 22.9 15.6593 22.9095 15.6023 22.9269L13.411 23.6341C13.0981 23.7364 12.9273 24.072 13.0298 24.3815C13.1068 24.618 13.3381 24.7837 13.5918 24.7837C13.6593 24.7837 13.7198 24.7754 13.7739 24.7589L15.9652 24.0517C16.1185 24.0016 16.2427 23.8955 16.3143 23.7526C16.3843 23.6142 16.3952 23.456 16.3456 23.3081C16.2673 23.064 16.0414 22.9 15.7827 22.9ZM15.966 16.9737L13.7793 16.2657C13.7173 16.2458 13.6539 16.2355 13.591 16.2355C13.3356 16.2355 13.1106 16.3979 13.0298 16.6406C12.9302 16.953 13.101 17.2865 13.4098 17.3839L15.5973 18.0964C15.6543 18.1142 15.7152 18.1229 15.7839 18.1229C16.0418 18.1229 16.2685 17.9568 16.3468 17.7111C16.3956 17.5665 16.3839 17.4108 16.3139 17.2724C16.2418 17.1299 16.1185 17.0238 15.966 16.9737ZM18.8285 13.0687C18.9356 13.2183 19.1139 13.3073 19.3056 13.3073C19.431 13.3073 19.5485 13.268 19.6527 13.1913C19.7789 13.1019 19.8623 12.9672 19.8877 12.8135C19.9131 12.6573 19.8768 12.5012 19.7839 12.3744L18.4323 10.5192C18.3173 10.3647 18.141 10.2756 17.9489 10.2756C17.8235 10.2756 17.7031 10.3154 17.6002 10.3896C17.4731 10.4811 17.3893 10.6178 17.3652 10.774C17.341 10.9285 17.3793 11.0831 17.4727 11.2082L18.8285 13.0687ZM25.0006 11.4684C25.3281 11.4684 25.5939 11.2036 25.5939 10.878V8.58372C25.5939 8.26224 25.3277 8 25.0006 8C24.6731 8 24.4068 8.26183 24.4068 8.58372V10.878C24.4068 11.2036 24.6731 11.4684 25.0006 11.4684ZM30.3543 13.1955C30.4539 13.2688 30.5718 13.3073 30.6956 13.3073C30.8868 13.3073 31.066 13.217 31.1743 13.0662L32.5302 11.2053C32.6222 11.0814 32.6593 10.9281 32.6356 10.774C32.6114 10.6178 32.5277 10.4807 32.4002 10.3892C32.2972 10.315 32.1772 10.2761 32.0522 10.2761C31.8627 10.2761 31.6835 10.3655 31.5714 10.5163L30.2172 12.3744C30.1247 12.5012 30.0881 12.6569 30.1135 12.8131C30.1389 12.9693 30.2227 13.1019 30.3543 13.1955ZM36.5918 23.6349L34.4014 22.9282C34.3422 22.9095 34.281 22.9 34.2197 22.9C33.9639 22.9 33.731 23.0678 33.6535 23.3068C33.5514 23.615 33.7214 23.9489 34.0335 24.0513L36.2222 24.758C36.2797 24.7754 36.3406 24.7841 36.4085 24.7841C36.6643 24.7841 36.8889 24.6238 36.9697 24.3839C37.0702 24.072 36.9006 23.736 36.5918 23.6349ZM34.2168 18.1229C34.2847 18.1229 34.3456 18.1146 34.3989 18.0981L36.5902 17.3909C36.8993 17.2898 37.0706 16.9559 36.9722 16.6456C36.8914 16.402 36.6643 16.2388 36.4068 16.2388C36.3456 16.2388 36.2856 16.2483 36.2277 16.2665L34.0364 16.9737C33.8831 17.0238 33.7589 17.1299 33.6872 17.2724C33.6177 17.4108 33.6064 17.569 33.656 17.7161C33.7335 17.9597 33.9589 18.1229 34.2168 18.1229ZM28.2302 32.2263H21.596C21.3031 32.2263 21.0652 32.4624 21.0652 32.754C21.0652 33.0453 21.3027 33.2818 21.596 33.2818H28.2306C28.5239 33.2818 28.7614 33.0457 28.7614 32.754C28.7614 32.4624 28.5231 32.2263 28.2302 32.2263ZM28.2302 34.0731H21.596C21.3031 34.0731 21.0652 34.3093 21.0652 34.6009C21.0652 34.8926 21.3027 35.1287 21.596 35.1287H28.2306C28.5239 35.1287 28.7614 34.8926 28.7614 34.6009C28.7614 34.3093 28.5231 34.0731 28.2302 34.0731ZM26.8577 35.9444H22.8773C22.5843 35.9444 22.3464 36.1806 22.3464 36.4722C22.3464 36.7639 22.5839 37 22.8768 37H26.8572C27.1502 37 27.3881 36.7639 27.3881 36.4722C27.3881 36.1806 27.1506 35.9444 26.8577 35.9444Z" fill="white"/>
</g>
</svg>
