<svg width="27" height="24" viewBox="0 0 27 24" fill="none" xmlns="http://www.w3.org/2000/svg">
<g id="heart-bit-icon">
<path id="Vector" d="M0.0162487 8.61539C0.025973 8.77658 0.0996813 8.92733 0.221159 9.03447C0.342636 9.14162 0.501932 9.19637 0.664003 9.1867C0.826073 9.17703 0.977643 9.10372 1.08537 8.9829C1.19309 8.86208 1.24815 8.70365 1.23843 8.54245C1.17554 7.56789 1.31779 6.591 1.65609 5.67423C1.99438 4.75746 2.52127 3.92098 3.20308 3.21825C3.82335 2.58209 4.56624 2.07685 5.38732 1.73276C6.2084 1.38866 7.09081 1.21277 7.98179 1.2156C9.34146 1.2156 10.9822 2.106 12.7208 3.78957C12.8488 3.91466 13.021 3.98475 13.2005 3.98475C13.3799 3.98475 13.5522 3.91466 13.6802 3.78957C15.0842 2.36229 16.9956 1.54053 19.0028 1.50126H19.0486C19.8185 1.49499 20.5818 1.64389 21.2923 1.93899C22.0028 2.23408 22.6458 2.66925 23.1826 3.21825C24.447 4.5331 25.1527 6.28239 25.1527 8.10181C25.1527 9.92122 24.447 11.6705 23.1826 12.9854L13.3624 22.406C13.3115 22.456 13.2429 22.484 13.1715 22.484C13.1 22.484 13.0314 22.456 12.9805 22.406L6.25852 15.9483C6.20074 15.8928 6.13254 15.8492 6.05782 15.82C5.98309 15.7907 5.90331 15.7764 5.82301 15.7778C5.66085 15.7806 5.50647 15.8475 5.39383 15.9635C5.28119 16.0796 5.21952 16.2354 5.22239 16.3967C5.22525 16.558 5.29242 16.7115 5.40911 16.8235L12.1311 23.2812C12.4095 23.551 12.7828 23.7019 13.1715 23.7019C13.5601 23.7019 13.9334 23.551 14.2118 23.2812L24.0687 13.8454C25.5604 12.3032 26.3936 10.2463 26.3936 8.10636C26.3936 5.96639 25.5604 3.90956 24.0687 2.36735C23.4202 1.70221 22.6429 1.17459 21.7838 0.816299C20.9247 0.458011 20.0015 0.276478 19.07 0.282646C16.8963 0.293285 14.8039 1.10539 13.1974 2.56184C11.3367 0.857003 9.58284 2.5717e-05 7.98179 2.5717e-05C6.92756 -0.00266704 5.88361 0.206131 4.91238 0.613932C3.94115 1.02173 3.06258 1.62016 2.32922 2.37343C1.52843 3.19667 0.909122 4.177 0.510858 5.25179C0.112594 6.32658 -0.0558642 7.47218 0.0162487 8.61539Z" fill="white"/>
<path id="Vector_2" d="M4.13804 13.4898C4.24364 13.4881 4.347 13.4593 4.43803 13.406C4.52907 13.3527 4.60467 13.2769 4.65746 13.1859L5.65354 11.5783L7.0071 13.7238C7.06731 13.8194 7.15307 13.8964 7.25478 13.9463C7.3565 13.9962 7.47015 14.0169 7.58304 14.0062C7.69593 13.9954 7.80358 13.9537 7.89397 13.8856C7.98436 13.8175 8.05391 13.7257 8.09484 13.6205L9.87311 9.06211L11.5139 15.5259C11.5441 15.6457 11.6103 15.7535 11.7036 15.8349C11.797 15.9163 11.913 15.9676 12.0364 15.9817H12.1066C12.218 15.9817 12.3273 15.9514 12.4226 15.8941C12.5179 15.8368 12.5957 15.7547 12.6474 15.6566L14.6854 11.7728L15.4646 13.1555C15.5184 13.2483 15.5959 13.3252 15.6893 13.3786C15.7827 13.432 15.8885 13.4599 15.9962 13.4594H18.8347C18.9968 13.4594 19.1522 13.3954 19.2668 13.2814C19.3814 13.1674 19.4458 13.0128 19.4458 12.8517C19.4458 12.6905 19.3814 12.5359 19.2668 12.4219C19.1522 12.3079 18.9968 12.2439 18.8347 12.2439H16.3598L15.2018 10.1896C15.148 10.0968 15.0704 10.0198 14.9771 9.96648C14.8837 9.91311 14.7778 9.88523 14.6702 9.88566C14.5533 9.88537 14.4388 9.91843 14.3402 9.98091C14.2416 10.0434 14.1631 10.1327 14.1141 10.2382L12.2808 13.7056L10.5911 6.94094C10.559 6.8164 10.4879 6.70522 10.3882 6.62338C10.2885 6.54155 10.1652 6.49328 10.0362 6.48551C9.90714 6.47774 9.77895 6.51088 9.67003 6.58015C9.56112 6.64943 9.4771 6.75127 9.43007 6.87104L7.39208 12.0676L6.16991 10.1197C6.11514 10.0325 6.03905 9.96058 5.94874 9.91063C5.85844 9.86067 5.75687 9.8343 5.65354 9.834C5.54793 9.83569 5.44458 9.86457 5.35354 9.91783C5.26251 9.97109 5.18691 10.0469 5.13411 10.1379L3.79888 12.2894H1.63257C1.4705 12.2894 1.31507 12.3535 1.20047 12.4675C1.08587 12.5814 1.02148 12.736 1.02148 12.8972C1.02148 13.0584 1.08587 13.213 1.20047 13.327C1.31507 13.441 1.4705 13.505 1.63257 13.505L4.13804 13.4898Z" fill="white"/>
</g>
</svg>
