<svg width="25" height="25" viewBox="0 0 25 25" fill="none" xmlns="http://www.w3.org/2000/svg">
<g id="Frame" clip-path="url(#clip0_2732_3664)">
<path id="Vector" d="M20.8081 17.3777H22.8081V19.3777H2.80811V17.3777H4.8081L4.8081 10.3777C4.8081 8.25595 5.65096 6.22112 7.15125 4.72083C8.65154 3.22054 10.6864 2.37769 12.8081 2.37769C14.9298 2.37769 16.9647 3.22054 18.465 4.72083C19.9652 6.22112 20.8081 8.25595 20.8081 10.3777V17.3777ZM18.8081 17.3777V10.3777C18.8081 8.78639 18.176 7.26026 17.0507 6.13505C15.9255 5.00983 14.3994 4.37769 12.8081 4.37769C11.2168 4.37769 9.69068 5.00983 8.56546 6.13505C7.44024 7.26026 6.8081 8.78639 6.8081 10.3777L6.8081 17.3777H18.8081ZM9.8081 21.3777H15.8081V23.3777H9.8081V21.3777Z" fill="black"/>
</g>
<defs>
<clipPath id="clip0_2732_3664">
<rect width="24" height="24" fill="white" transform="translate(0.808105 0.377686)"/>
</clipPath>
</defs>
</svg>
