<svg width="24" height="27" viewBox="0 0 24 27" fill="none" xmlns="http://www.w3.org/2000/svg">
<g id="Vector">
<path d="M19.1452 9.00142C19.1452 6.87979 18.3806 4.84443 17.0198 3.34417C15.6589 1.8439 13.8105 1 11.8871 1C9.96371 1 8.11653 1.84265 6.75444 3.34417C5.39355 4.84443 4.62903 6.87979 4.62903 9.00142C4.62903 18.3368 1 21.0035 1 21.0035H22.7742C22.7742 21.0035 19.1452 18.3368 19.1452 9.00142ZM13.9798 24.7542C13.7672 25.1331 13.4619 25.4476 13.0946 25.6663C12.7274 25.8849 12.3109 26 11.8871 26C11.4633 26 11.0468 25.8849 10.6796 25.6663C10.3123 25.4476 10.007 25.1331 9.79436 24.7542" fill="white"/>
<path d="M13.9798 24.7542C13.7672 25.1331 13.4619 25.4476 13.0946 25.6663C12.7274 25.8849 12.3109 26 11.8871 26C11.4633 26 11.0468 25.8849 10.6796 25.6663C10.3123 25.4476 10.007 25.1331 9.79436 24.7542M19.1452 9.00142C19.1452 6.87979 18.3806 4.84443 17.0198 3.34417C15.6589 1.8439 13.8105 1 11.8871 1C9.96371 1 8.11653 1.84265 6.75444 3.34417C5.39355 4.84443 4.62903 6.87979 4.62903 9.00142C4.62903 18.3368 1 21.0035 1 21.0035H22.7742C22.7742 21.0035 19.1452 18.3368 19.1452 9.00142Z" stroke="#6C6C6C" stroke-width="1.5" stroke-linecap="round" stroke-linejoin="round"/>
</g>
</svg>
