<svg width="28" height="24" viewBox="0 0 28 24" fill="none" xmlns="http://www.w3.org/2000/svg">
<path id="stack-of-coins" d="M24.2728 5.31028V3.17106V2.9378C24.2728 2.78141 24.2041 2.64224 24.0968 2.54522C23.093 0.801931 17.9004 0 13.0381 0C8.17585 0 2.98322 0.801931 1.9794 2.54522C1.87212 2.64224 1.8034 2.78141 1.8034 2.9378V3.17106V7.359V7.59226C1.8034 8.36458 2.51108 9.01654 3.90531 9.5387C1.95104 9.97474 0.127769 10.7012 0.0136504 11.8926C0.00525843 11.9302 0 11.9689 0 12.009V16.4302C0 17.1437 0.611071 17.7561 1.8034 18.2558V20.8289C1.8034 22.3287 4.56323 23.2662 8.04834 23.705C8.08856 23.7148 8.12998 23.7215 8.17325 23.7215C8.17597 23.7215 8.17846 23.7208 8.18117 23.7208C9.72274 23.9083 11.3989 24 13.0381 24C18.4492 24 24.2728 23.0076 24.2728 20.8289V16.4077C24.2728 16.3675 24.2675 16.3286 24.259 16.2909C24.1987 15.6655 23.6629 15.1173 22.6499 14.6582C22.9445 14.6045 23.2408 14.545 23.5351 14.4788C23.5709 14.4865 23.6078 14.491 23.6458 14.491C23.7691 14.491 23.881 14.4467 23.9708 14.3755C25.8117 13.9133 27.4286 13.1767 27.4286 12.0135V11.9048V7.59226V7.48357C27.4286 7.40727 27.4118 7.33513 27.3829 7.26957C27.1652 6.46986 26.1233 5.81242 24.2728 5.31028ZM26.3736 7.59226C26.3736 7.61085 26.3692 7.63153 26.3616 7.65346C26.3591 7.66052 26.3545 7.66841 26.3513 7.67581C26.3444 7.69136 26.3366 7.70725 26.326 7.72416C26.32 7.73373 26.3123 7.74387 26.3051 7.75385C26.2933 7.77003 26.2803 7.78659 26.2652 7.80378C26.2555 7.81489 26.2449 7.82625 26.2337 7.83777C26.2166 7.85536 26.1973 7.8735 26.1768 7.89198C26.1635 7.90393 26.1504 7.91586 26.1357 7.92815C26.1117 7.94814 26.0844 7.96884 26.0563 7.98968C26.0407 8.00128 26.0265 8.0126 26.0096 8.02444C25.9692 8.05278 25.9244 8.08185 25.8765 8.11137C25.8687 8.11618 25.8624 8.12078 25.8544 8.12561C25.7977 8.15988 25.735 8.19494 25.6678 8.23048C25.6461 8.24196 25.6214 8.25369 25.5985 8.26527C25.5502 8.28979 25.5008 8.31437 25.4473 8.33928C25.4167 8.35354 25.3836 8.36794 25.3513 8.38231C25.3001 8.4051 25.2473 8.42798 25.1916 8.451C25.1549 8.46616 25.1168 8.48134 25.0782 8.49656C25.0202 8.5194 24.9595 8.54231 24.897 8.56523C24.8557 8.58041 24.8143 8.59557 24.7709 8.61078C24.703 8.63459 24.6309 8.65835 24.5579 8.68212C24.5145 8.69624 24.4726 8.71041 24.4273 8.72452C24.3359 8.75303 24.2388 8.78136 24.1397 8.80964C24.1079 8.81874 24.0786 8.82795 24.046 8.837C23.9139 8.87362 23.7747 8.90992 23.6292 8.94576C23.5834 8.95706 23.5335 8.96804 23.4864 8.97923C23.4039 8.99881 23.3192 9.01818 23.2326 9.03742C23.239 9.03351 23.2446 9.02929 23.2509 9.02536C23.3192 8.98318 23.3853 8.94013 23.448 8.89579C23.451 8.89364 23.4544 8.89161 23.4574 8.88945C23.5226 8.84298 23.5837 8.79504 23.6423 8.74619C23.6594 8.73196 23.6752 8.71731 23.6916 8.70289C23.7326 8.66698 23.7717 8.63049 23.8089 8.59331C23.8257 8.57647 23.8423 8.5596 23.8583 8.54248C23.8956 8.50254 23.9303 8.46173 23.9631 8.42031C23.9735 8.40715 23.985 8.39434 23.9949 8.38101C24.0355 8.3265 24.0721 8.27075 24.1044 8.21368C24.1117 8.20077 24.1172 8.18735 24.124 8.1743C24.1477 8.12919 24.1689 8.0834 24.1871 8.03669C24.1947 8.01705 24.2013 7.99716 24.208 7.97723C24.2224 7.93378 24.2342 7.88957 24.2437 7.84473C24.2478 7.82545 24.2526 7.80641 24.2557 7.78687C24.266 7.72325 24.2728 7.65866 24.2728 7.59226V7.359V6.41148C25.9684 6.91285 26.3736 7.43353 26.3736 7.59226ZM4.43304 8.60388V5.29921C4.48575 5.31588 4.53977 5.33158 4.59324 5.34772V8.65857C4.53808 8.6403 4.48495 8.62208 4.43304 8.60388ZM22.6695 4.90898C22.7163 4.88745 22.7635 4.86574 22.8086 4.84398C22.8533 4.82217 22.8982 4.80054 22.9415 4.77809C22.9702 4.7636 23.0003 4.74954 23.0287 4.73485C23.0826 4.70621 23.1367 4.67481 23.1889 4.64445L23.2112 4.62996C23.2134 4.62892 23.2157 4.62789 23.2179 4.62651V5.72137V7.359V7.59226C23.2179 7.6598 23.1703 7.74844 23.0666 7.8512C22.9325 7.98394 22.7022 8.14047 22.3618 8.3054V5.13546C22.3618 5.10469 22.3578 5.07495 22.3528 5.0456C22.391 5.03003 22.4316 5.01508 22.4696 4.99917C22.4756 4.9966 22.4809 4.99397 22.4868 4.9914C22.5496 4.96479 22.609 4.93667 22.6695 4.90898ZM11.2347 18.5412C10.9776 18.5412 10.7225 18.5383 10.4686 18.5338V15.1716C10.6996 15.1754 10.9312 15.1786 11.1653 15.1793C11.201 15.1911 11.2382 15.1988 11.2768 15.2027V18.5408C11.2626 18.5409 11.2489 18.5412 11.2347 18.5412ZM10.9341 6.28989L10.9679 6.29174C10.9772 6.29215 10.9864 6.29226 10.9956 6.29267C11.0693 6.29617 11.1429 6.29955 11.2169 6.30268V9.66557C10.9565 9.65466 10.6993 9.64109 10.4449 9.62552V6.26302C10.6071 6.27287 10.77 6.28189 10.9341 6.28989ZM19.4758 5.81893C19.6374 5.78965 19.7998 5.75829 19.9624 5.72527V9.0636C19.8073 9.09705 19.6439 9.12948 19.4758 9.16149V5.81893ZM21.3068 5.40105V8.71449C21.2159 8.74326 21.1158 8.77164 21.0173 8.80013V5.47976C21.0244 5.47787 21.0323 5.47554 21.0395 5.47362C21.129 5.44979 21.2188 5.4263 21.3068 5.40105ZM21.2615 14.8762C21.3121 14.8695 21.3645 14.8636 21.4145 14.8567V14.9399V16.4302C21.4145 16.4703 21.4031 16.5127 21.3803 16.5572C21.2891 16.7352 21.0149 16.9446 20.5586 17.1594V14.9598C20.7396 14.9403 20.9178 14.9196 21.0933 14.8976C21.1497 14.8905 21.2058 14.8835 21.2615 14.8762ZM8.80409 10.5526C8.93072 10.5658 9.05857 10.5782 9.18716 10.5902V13.4623C9.16089 13.4564 9.13301 13.4511 9.10697 13.4451C9.09358 13.442 9.07915 13.4392 9.06422 13.4375C8.97317 13.417 8.89005 13.396 8.80409 13.3752V10.5526ZM10.8017 10.7052V13.7596C10.6116 13.7312 10.425 13.7013 10.2421 13.6699V10.6747C10.4264 10.6867 10.6143 10.6957 10.8017 10.7052ZM18.0889 10.7176V14.0772C17.8244 14.089 17.561 14.1018 17.2909 14.1085V10.7467C17.5615 10.7401 17.8251 10.7292 18.0889 10.7176ZM16.2359 14.117C16.0534 14.117 15.8733 14.1194 15.6886 14.1171C15.602 14.1161 15.5151 14.1149 15.4277 14.1133V10.757C15.6807 10.7609 15.9362 10.7633 16.1939 10.7633C16.2081 10.7633 16.2217 10.7627 16.2359 10.7627V14.117ZM17.6724 15.1573C17.8238 15.1523 17.9757 15.1478 18.1255 15.1412C18.1348 15.1655 18.1466 15.1881 18.1592 15.2105V17.9026C18.0033 17.9362 17.8395 17.9684 17.6724 18.0002V15.1573ZM19.2141 17.6435V15.0795C19.3115 15.0725 19.4071 15.0643 19.5036 15.0566V17.5295C19.5036 17.5379 19.5057 17.5456 19.5061 17.5539C19.4099 17.5839 19.3176 17.614 19.2141 17.6435ZM15.9804 15.1814C16.0508 15.1818 16.124 15.1845 16.1939 15.1845C16.3134 15.1845 16.4303 15.1813 16.5491 15.1804C16.5709 15.1902 16.5941 15.197 16.6174 15.2038V18.1781C16.4129 18.208 16.198 18.2353 15.9804 18.2623V15.1814ZM19.8846 13.9574C19.6413 13.9799 19.3932 13.9986 19.1439 14.0166V10.6606C19.3943 10.6432 19.6418 10.6243 19.8846 10.6027V13.9574ZM14.3728 10.7418V14.0779C14.1487 14.0686 13.9298 14.0655 13.7031 14.0527C13.6967 14.0525 13.6825 14.0526 13.6699 14.0526C13.6466 14.0512 13.6239 14.0493 13.6006 14.0479V10.7585C13.6753 10.7575 13.7513 10.7577 13.8254 10.7564C13.8654 10.7557 13.9036 10.7541 13.9435 10.7533C14.0883 10.7503 14.2309 10.7462 14.3728 10.7418ZM12.5457 13.9674C12.313 13.9462 12.0827 13.9233 11.8566 13.8979V10.7462C12.0846 10.7521 12.3145 10.7558 12.5457 10.7583V13.9674ZM9.38994 9.49865C9.37294 9.51211 9.35545 9.52498 9.34023 9.54042C9.12487 9.52071 8.91018 9.50059 8.70072 9.47736V6.11704C8.92767 6.14154 9.15722 6.16423 9.38994 6.18478V9.49865ZM7.64578 9.33941C7.49858 9.31771 7.34985 9.29675 7.20658 9.27318C7.17048 9.26274 7.13311 9.25603 7.09427 9.25359C7.09158 9.25314 7.08905 9.2526 7.08637 9.25215V5.9025C7.09175 5.90336 7.09729 5.90442 7.10268 5.90528C7.28028 5.93394 7.46272 5.96025 7.64578 5.9862V9.33941ZM7.73377 10.4243C7.73845 10.4314 7.74416 10.4375 7.74914 10.4444V13.0767C7.69469 13.0585 7.64005 13.0404 7.58877 13.0222V10.4024C7.63764 10.4094 7.68452 10.4175 7.73377 10.4243ZM7.58654 18.3812C7.35356 18.3602 7.12324 18.3376 6.89749 18.3126V14.9536C7.12367 14.9799 7.35448 15.0024 7.58654 15.0221V18.3812ZM8.65973 18.4634C8.65359 18.463 8.64762 18.4625 8.64148 18.4621V15.1008C8.64745 15.101 8.6543 15.1015 8.6602 15.1017C8.84478 15.1145 9.03314 15.1234 9.22184 15.1324L9.25893 15.1341C9.31035 15.1368 9.36204 15.1388 9.41363 15.141V18.5019C9.15996 18.4911 8.90799 18.4787 8.65973 18.4634ZM14.9255 15.1658V18.3756C14.686 18.3973 14.4372 18.4162 14.1846 18.434V15.1343C14.4321 15.1453 14.6811 15.1587 14.9255 15.1658ZM20.9396 13.8484V10.4916C21.1557 10.4656 21.3685 10.4382 21.5766 10.4086V13.7598C21.3686 13.791 21.1583 13.8211 20.9396 13.8484ZM18.4208 9.33811C18.2337 9.36539 18.0451 9.39246 17.845 9.4176C17.8249 9.42017 17.8039 9.42211 17.7838 9.42463V6.07052C17.9992 6.04458 18.2119 6.01715 18.4208 5.98762V9.33811ZM16.7289 9.5379C16.4848 9.56056 16.2381 9.58107 15.988 9.59902V6.2402C16.2377 6.22276 16.4847 6.20309 16.7289 6.18122V9.5379ZM14.933 9.6594C14.8072 9.6649 14.683 9.67206 14.5561 9.6764C14.4186 9.68144 14.2759 9.68414 14.1351 9.68776V6.32677C14.403 6.32006 14.6689 6.31092 14.933 6.29934V9.6594ZM13.0802 9.70294C13.066 9.70296 13.0523 9.70331 13.0381 9.70331C12.7804 9.70331 12.5256 9.69995 12.2718 9.69559V6.33527C12.5261 6.33969 12.7816 6.34212 13.0381 6.34212C13.0522 6.34212 13.0661 6.34178 13.0802 6.34176V9.70294ZM6.03142 5.70813V9.0465C6.02975 9.04611 6.02792 9.04578 6.02627 9.0454C5.89689 9.0165 5.77157 8.98693 5.64818 8.95667V5.62508C5.71972 5.64134 5.79123 5.65676 5.86302 5.67224C5.91926 5.68438 5.9751 5.69646 6.03142 5.70813ZM6.01408 10.1274C6.09289 10.1443 6.17308 10.1612 6.25481 10.1781C6.34547 10.196 6.44138 10.2116 6.53383 10.2288V12.542C6.14213 12.3007 6.01408 12.1036 6.01408 12.0135V10.1274ZM5.84255 18.177C5.65241 18.1491 5.46566 18.1199 5.28297 18.0891V14.7403C5.28784 14.7411 5.29286 14.7421 5.29773 14.7428C5.48736 14.7741 5.66715 14.8008 5.84255 14.825V18.177ZM4.22802 14.546V17.886C4.20765 17.8815 4.18746 17.8769 4.1672 17.8724C4.0898 17.8276 4.00129 17.8 3.90556 17.8C3.8947 17.8 3.88455 17.8026 3.87386 17.8033C3.86431 17.8009 3.85446 17.7987 3.84495 17.7964V14.4631C3.91758 14.4796 3.99021 14.4952 4.0631 14.5109C4.11818 14.5228 4.17288 14.5345 4.22802 14.546ZM2.79001 14.1857V17.4959C2.73556 17.4777 2.68228 17.4593 2.62964 17.4407V14.1371C2.68241 14.1538 2.73648 14.1696 2.79001 14.1857ZM4.51193 19.0244C4.53932 19.0297 4.56566 19.0354 4.59324 19.0407V21.8975C4.53784 21.8793 4.48583 21.861 4.43304 21.8427V19.0098C4.45877 19.0149 4.48603 19.0194 4.51193 19.0244ZM5.64818 19.2178C5.77462 19.2366 5.90213 19.2548 6.03142 19.2723V22.2835C5.89962 22.2544 5.772 22.2247 5.64818 22.1945V19.2178ZM7.08637 19.3969C7.13421 19.4018 7.18224 19.4065 7.23036 19.4113C7.31115 19.4192 7.39299 19.4264 7.47455 19.4339C7.53174 19.4391 7.58823 19.4447 7.64578 19.4498V22.5776C7.4536 22.5491 7.26741 22.5194 7.08637 22.4885V19.3969ZM8.70072 19.5262C8.81913 19.5333 8.93823 19.5396 9.0578 19.5457C9.14522 19.5502 9.23253 19.5546 9.32051 19.5585C9.34375 19.5595 9.36665 19.5609 9.38994 19.5619V22.7829C9.15471 22.7616 8.92383 22.7391 8.70072 22.7142V19.5262ZM10.4449 19.5934C10.4935 19.5943 10.5419 19.5955 10.5906 19.5962C10.7985 19.5993 11.0072 19.601 11.2169 19.6011V22.9026C10.9531 22.8917 10.6968 22.8778 10.4449 22.8624V19.5934ZM12.6662 18.5143C12.5568 18.5186 12.4432 18.5206 12.3317 18.5239V15.1647C12.5219 15.1601 12.7145 15.1546 12.9215 15.1479C12.9919 15.1454 13.0603 15.1419 13.1296 15.1388V18.494C12.985 18.5004 12.8465 18.5089 12.6981 18.514C12.6867 18.514 12.6712 18.514 12.6662 18.5143ZM14.1351 19.5631C14.403 19.5565 14.6689 19.5473 14.933 19.5358V22.8992C14.6728 22.9105 14.4069 22.9195 14.1351 22.9262V19.5631ZM15.988 19.4767C16.2378 19.4592 16.4847 19.4395 16.7289 19.4177V22.7791C16.488 22.8011 16.2416 22.8215 15.988 22.8394V19.4767ZM17.7838 19.307C17.9993 19.2811 18.2119 19.2536 18.4208 19.224V22.5677C18.4208 22.5715 18.4219 22.5751 18.422 22.5788C18.2155 22.6093 18.003 22.6384 17.7838 22.6657V19.307ZM19.4758 19.0554C19.4819 19.0542 19.488 19.053 19.4941 19.0519C19.5471 19.0422 19.6 19.0318 19.6531 19.0218C19.7562 19.0023 19.859 18.9827 19.9624 18.9618V22.3019C19.8057 22.3358 19.6434 22.3688 19.4758 22.401V19.0554ZM21.0173 18.7161C21.0894 18.697 21.162 18.6785 21.2331 18.6585C21.2441 18.6554 21.2554 18.6527 21.2664 18.6496C21.28 18.6458 21.2932 18.6416 21.3068 18.6377V21.953C21.2136 21.982 21.1172 22.0108 21.0173 22.0393V18.7161ZM22.6315 10.2401C22.6363 10.2393 22.6411 10.2383 22.6458 10.2374C22.7034 10.227 22.761 10.2156 22.8188 10.2046C22.9186 10.1857 23.0182 10.1667 23.1183 10.1464V13.4847C22.9632 13.5181 22.7999 13.5508 22.6315 13.583V10.2401ZM24.1732 9.90068C24.2377 9.8836 24.3025 9.86691 24.3663 9.84914C24.3856 9.84375 24.4055 9.83896 24.4248 9.8335C24.4376 9.82988 24.4499 9.82585 24.4627 9.82218V13.1347C24.3712 13.1636 24.2726 13.1923 24.1732 13.2209V9.90068ZM13.0381 1.06001C19.5901 1.06001 23.1785 2.43982 23.2161 3.15942C23.2145 3.17574 23.2107 3.19148 23.2106 3.20815C23.2101 3.21018 23.2099 3.21208 23.2094 3.21415C23.2067 3.22577 23.2026 3.23649 23.1999 3.24352C23.1921 3.26181 23.1849 3.27527 23.1674 3.29942C23.1437 3.33358 23.1162 3.3674 23.1047 3.38258C23.067 3.42399 23.0264 3.46539 22.9605 3.51991C22.9481 3.53061 22.9346 3.53993 22.921 3.54993L22.8745 3.58513C22.8309 3.61791 22.7795 3.65034 22.7127 3.69382L22.6748 3.71782C22.6252 3.74726 22.5727 3.77704 22.5154 3.80739C22.3959 3.86835 22.2653 3.9293 22.1299 3.98938C21.6366 4.2022 20.9541 4.42407 20.0349 4.62577C20.0236 4.62784 20.0122 4.62935 20.001 4.63203C19.9341 4.64891 19.8644 4.66248 19.7914 4.67695C19.7443 4.68668 19.6955 4.69623 19.6472 4.70585C19.5447 4.72646 19.4413 4.74687 19.3355 4.76647C19.1649 4.7978 18.9904 4.82869 18.8063 4.85838C17.0903 5.13581 15.0956 5.28211 13.0381 5.28211C12.6708 5.28211 12.3077 5.27763 11.9409 5.26382C11.6262 5.25934 11.3204 5.24623 11.0194 5.23277L10.5295 5.20585C10.29 5.1924 10.0503 5.1748 9.82074 5.15686L9.60437 5.13917C9.51719 5.13175 9.4287 5.12533 9.34231 5.11735C9.30885 5.11325 9.27546 5.10948 9.2421 5.10613L9.15591 5.09647C9.14234 5.09475 9.12586 5.09337 9.10955 5.09268C8.82611 5.0657 8.54415 5.03354 8.26412 4.99871C8.21392 4.99242 8.16335 4.98631 8.11352 4.9798C7.82909 4.94292 7.54677 4.903 7.26992 4.85838C6.54451 4.74139 5.93173 4.61012 5.4078 4.47363C5.3251 4.41949 5.22678 4.38738 5.12071 4.38738C5.11255 4.38738 5.10498 4.38943 5.09691 4.3898C3.44922 3.92033 2.85834 3.40611 2.85834 3.17106C2.85834 2.45473 6.45141 1.06001 13.0381 1.06001ZM2.85834 7.59226V7.359V4.62513C2.87011 4.63224 2.88419 4.63841 2.8961 4.64546C3.0058 4.71042 3.12185 4.77279 3.2436 4.83276C3.28681 4.85405 3.33212 4.87428 3.37672 4.89496C3.37719 4.89515 3.37764 4.89537 3.37809 4.89559V8.12843C2.98066 7.88508 2.85834 7.68648 2.85834 7.59226ZM4.95913 10.4069V12.0135C4.95913 12.0957 4.96995 12.1761 4.9859 12.2556C4.99036 12.2779 4.99633 12.3 5.00206 12.3222C5.01829 12.3847 5.03954 12.4464 5.06581 12.5072C5.0734 12.5248 5.07941 12.5427 5.08789 12.5602C5.12431 12.6355 5.1684 12.7094 5.22042 12.7819C5.2318 12.7978 5.24566 12.8132 5.25779 12.829C5.30273 12.8872 5.35281 12.9446 5.40799 13.0011C5.42735 13.0209 5.44666 13.0407 5.46727 13.0602C5.53737 13.1268 5.61272 13.1924 5.69733 13.2563C5.70104 13.2592 5.70405 13.2621 5.7078 13.2649C5.79679 13.3315 5.89616 13.3962 6.00092 13.4599C6.02951 13.4773 6.05965 13.4944 6.08939 13.5116C6.17576 13.5614 6.26708 13.6103 6.36332 13.6583C6.39232 13.6728 6.41988 13.6875 6.44976 13.7018C6.57392 13.7612 6.70525 13.8192 6.84484 13.8757C6.85077 13.8781 6.85564 13.8807 6.86156 13.8831C6.70489 13.867 6.55009 13.849 6.39646 13.8267C6.3853 13.825 6.37311 13.8236 6.36075 13.8229C6.05477 13.7877 5.75721 13.7443 5.46652 13.6963C2.13324 13.1587 1.05495 12.3275 1.05495 12.009C1.05495 11.7033 2.02524 10.9407 4.95913 10.4069ZM1.05495 16.4302V13.4634C1.07194 13.4737 1.0922 13.4826 1.10953 13.4928C1.21362 13.5538 1.32265 13.6128 1.43744 13.6694C1.48201 13.6914 1.52865 13.7123 1.57469 13.7337V16.9645C1.18291 16.7242 1.05495 16.5267 1.05495 16.4302ZM2.85834 20.8289V18.6289C2.8791 18.635 2.90144 18.6407 2.92239 18.6468C2.98249 18.6642 3.04447 18.6811 3.10613 18.6981C3.18748 18.7206 3.2694 18.7428 3.35341 18.7645C3.3618 18.7667 3.36968 18.769 3.37809 18.7711V21.3804C3.03417 21.1784 2.85834 20.9871 2.85834 20.8289ZM12.2718 22.9328V19.5859C12.411 19.5822 12.5534 19.5792 12.6865 19.574C12.6896 19.574 12.6988 19.574 12.7078 19.5739C12.8164 19.5779 12.925 19.5785 13.0381 19.5785C13.0522 19.5785 13.0661 19.5781 13.0802 19.5781V22.9397C13.066 22.9397 13.0523 22.94 13.0381 22.94C12.7774 22.94 12.5231 22.9371 12.2718 22.9328ZM23.2179 20.8289C23.2179 21.0324 22.9274 21.2905 22.3618 21.5558V18.2794C22.3742 18.2744 22.3853 18.2688 22.3976 18.2638C22.5 18.2218 22.5988 18.1783 22.6954 18.1336C22.7421 18.112 22.7895 18.0908 22.8347 18.0686C22.9512 18.0111 23.062 17.9513 23.1675 17.8893C23.1835 17.8799 23.2022 17.8716 23.2179 17.8622V20.8289ZM23.2179 16.4077C23.2179 16.4279 23.2134 16.4502 23.2044 16.4743C23.2019 16.4812 23.1961 16.4894 23.1928 16.4966C23.1845 16.5145 23.1764 16.5323 23.1632 16.5519C23.157 16.5612 23.1472 16.5716 23.1398 16.5813C23.1253 16.6003 23.1113 16.6192 23.0922 16.6397C23.0824 16.6502 23.0688 16.6617 23.0577 16.6725C23.0365 16.6934 23.0157 16.7141 22.9897 16.736C22.9759 16.7478 22.9582 16.7603 22.9429 16.7724C22.9147 16.7945 22.8871 16.8167 22.8541 16.8398C22.8356 16.8528 22.8131 16.8664 22.7931 16.8796C22.7581 16.9027 22.7235 16.9258 22.6837 16.9495C22.6598 16.9638 22.632 16.9785 22.6063 16.993C22.5645 17.0166 22.5231 17.0402 22.4764 17.0643C22.4469 17.0796 22.4133 17.0952 22.3818 17.1106C22.333 17.1345 22.2846 17.1584 22.2309 17.1826C22.2241 17.1857 22.2161 17.1889 22.2092 17.192C22.2131 17.1866 22.2157 17.1809 22.2195 17.1754C22.2431 17.1419 22.2631 17.1075 22.2834 17.0732C22.298 17.0487 22.3139 17.0245 22.3268 16.9995C22.3456 16.9632 22.3602 16.9258 22.3753 16.8886C22.3851 16.8646 22.3968 16.8411 22.405 16.8168C22.4191 16.775 22.4283 16.732 22.4378 16.6892C22.4424 16.6683 22.4494 16.6481 22.4529 16.627C22.4636 16.5626 22.4694 16.497 22.4694 16.4302V15.7452C23.0455 16.0441 23.2179 16.2953 23.2179 16.4077ZM26.3736 12.0135C26.3736 12.1651 26.1264 12.4312 25.5177 12.7262V9.46391C25.5308 9.45862 25.5426 9.45267 25.5556 9.44734C25.6561 9.40617 25.7531 9.36343 25.848 9.31956C25.8962 9.29724 25.9452 9.27535 25.9918 9.25234C26.1053 9.19634 26.2131 9.13796 26.3161 9.07764C26.3344 9.06694 26.3557 9.0575 26.3736 9.04667V11.9048V12.0135Z" fill="#979C9E"/>
</svg>
