<svg width="27" height="24" viewBox="0 0 27 24" fill="none" xmlns="http://www.w3.org/2000/svg">
<g id="heart-bit-icon">
<path id="Vector" d="M0.0164531 8.72374C0.0262996 8.88696 0.100935 9.03961 0.22394 9.1481C0.346945 9.25659 0.508244 9.31204 0.672354 9.30224C0.836463 9.29245 0.989939 9.21822 1.09902 9.09588C1.2081 8.97354 1.26385 8.81311 1.254 8.64989C1.19033 7.66307 1.33437 6.6739 1.67691 5.7456C2.01946 4.8173 2.55298 3.97029 3.24336 3.25873C3.87144 2.61456 4.62367 2.10297 5.45507 1.75455C6.28648 1.40613 7.17999 1.22802 8.08218 1.23088C9.45895 1.23088 11.1204 2.13249 12.8808 3.83723C13.0104 3.96389 13.1848 4.03487 13.3665 4.03487C13.5482 4.03487 13.7226 3.96389 13.8522 3.83723C15.2739 2.392 17.2093 1.55991 19.2418 1.52014H19.2882C20.0678 1.51379 20.8406 1.66457 21.5601 1.96337C22.2795 2.26218 22.9306 2.70282 23.4742 3.25873C24.7545 4.59012 25.469 6.3614 25.469 8.2037C25.469 10.046 24.7545 11.8173 23.4742 13.1487L13.5305 22.6878C13.479 22.7384 13.4095 22.7667 13.3371 22.7667C13.2647 22.7667 13.1953 22.7384 13.1437 22.6878L6.33723 16.1489C6.27873 16.0927 6.20967 16.0486 6.134 16.0189C6.05834 15.9893 5.97755 15.9748 5.89625 15.9762C5.73205 15.9791 5.57572 16.0468 5.46167 16.1643C5.34761 16.2818 5.28516 16.4396 5.28807 16.6029C5.29097 16.7662 5.35898 16.9217 5.47714 17.0351L12.2837 23.5741C12.5656 23.8472 12.9436 24 13.3371 24C13.7307 24 14.1087 23.8472 14.3906 23.5741L24.3714 14.0195C25.8818 12.4579 26.7255 10.3752 26.7255 8.20832C26.7255 6.04143 25.8818 3.95873 24.3714 2.39712C23.7147 1.72362 22.9277 1.18936 22.0578 0.826566C21.1879 0.463771 20.2531 0.279955 19.3098 0.286201C17.1088 0.296973 14.99 1.11929 13.3634 2.59406C11.4792 0.867782 9.70336 2.60404e-05 8.08218 2.60404e-05C7.01469 -0.00270059 5.95761 0.208723 4.97416 0.621654C3.99071 1.03458 3.1011 1.64054 2.35851 2.40328C1.54766 3.23687 0.920556 4.22954 0.517283 5.31784C0.11401 6.40614 -0.0565668 7.56615 0.0164531 8.72374Z" fill="#979C9E"/>
<path id="Vector_2" d="M4.19017 13.6595C4.2971 13.6578 4.40176 13.6285 4.49394 13.5746C4.58612 13.5207 4.66267 13.4439 4.71613 13.3518L5.72473 11.724L7.09532 13.8964C7.15628 13.9932 7.24312 14.0712 7.34611 14.1217C7.44911 14.1722 7.5642 14.1932 7.6785 14.1823C7.79281 14.1715 7.90182 14.1292 7.99334 14.0602C8.08487 13.9912 8.15529 13.8983 8.19674 13.7918L9.99737 9.17608L11.6588 15.7212C11.6894 15.8425 11.7564 15.9516 11.8509 16.034C11.9454 16.1165 12.0629 16.1684 12.1878 16.1827H12.259C12.3718 16.1827 12.4824 16.152 12.5789 16.094C12.6754 16.036 12.7542 15.9528 12.8066 15.8535L14.8702 11.9209L15.6592 13.321C15.7137 13.4149 15.7922 13.4928 15.8867 13.5469C15.9812 13.6009 16.0885 13.6291 16.1975 13.6287H19.0717C19.2358 13.6287 19.3932 13.5639 19.5092 13.4485C19.6253 13.333 19.6905 13.1765 19.6905 13.0133C19.6905 12.8501 19.6253 12.6935 19.5092 12.5781C19.3932 12.4627 19.2358 12.3979 19.0717 12.3979H16.5657L15.3931 10.3177C15.3386 10.2238 15.2601 10.1459 15.1655 10.0918C15.071 10.0378 14.9638 10.0096 14.8547 10.01C14.7364 10.0097 14.6204 10.0432 14.5206 10.1064C14.4208 10.1697 14.3414 10.2601 14.2917 10.3669L12.4353 13.878L10.7244 7.02823C10.6919 6.90213 10.6199 6.78955 10.5189 6.70668C10.418 6.62382 10.2932 6.57494 10.1625 6.56707C10.0318 6.55921 9.90203 6.59276 9.79174 6.66291C9.68146 6.73305 9.59639 6.83618 9.54876 6.95746L7.48515 12.2194L6.2476 10.2469C6.19214 10.1587 6.11509 10.0859 6.02365 10.0353C5.93221 9.98468 5.82937 9.95799 5.72473 9.95767C5.6178 9.95939 5.51314 9.98863 5.42096 10.0426C5.32878 10.0965 5.25223 10.1733 5.19877 10.2654L3.84675 12.444H1.6532C1.48909 12.444 1.3317 12.5088 1.21566 12.6243C1.09962 12.7397 1.03442 12.8962 1.03442 13.0594C1.03442 13.2227 1.09962 13.3792 1.21566 13.4946C1.3317 13.61 1.48909 13.6749 1.6532 13.6749L4.19017 13.6595Z" fill="#979C9E"/>
</g>
</svg>
