<svg width="23" height="27" viewBox="0 0 23 27" fill="none" xmlns="http://www.w3.org/2000/svg">
<path id="light-bulb" d="M12.0408 4.58993C9.96683 4.44838 7.99226 5.11797 6.47929 6.47914C4.98829 7.82025 4.13338 9.71677 4.13338 11.682C4.13338 13.283 4.67843 14.8004 5.70983 16.0686C6.46252 16.9939 7.19405 18.0219 7.83054 19.0482V20.8807C7.83054 21.2769 8.16396 21.5993 8.57445 21.5993H14.3903C14.8004 21.5993 15.1338 21.2769 15.1338 20.8807V19.1084C15.8051 18.035 16.6029 16.9072 17.2841 16.0702C18.3694 14.7437 18.9276 13.0782 18.855 11.3803C18.7036 7.82565 15.7104 4.84335 12.0408 4.58993ZM16.4855 15.4619C15.7536 16.361 14.8951 17.5791 14.1887 18.72L14.1168 18.8369V20.6169H8.84758V18.779L8.7765 18.6633C8.10127 17.5625 7.31744 16.4555 6.50964 15.4627C5.62039 14.3684 5.15041 13.0616 5.15041 11.6827C5.15041 9.98908 5.88752 8.35445 7.17249 7.19887C8.47702 6.02593 10.1809 5.44736 11.9685 5.57079C15.1294 5.78872 17.7082 8.3587 17.8391 11.4212C17.9022 12.9054 17.4346 14.3021 16.4855 15.4619ZM2.66673 13.8724C2.60843 13.8724 2.54853 13.8813 2.49383 13.8975L0.393882 14.5559C0.0940041 14.6511 -0.0697115 14.9636 0.0285176 15.2517C0.102389 15.4719 0.324004 15.6262 0.567181 15.6262C0.631868 15.6262 0.689768 15.6185 0.741677 15.6031L2.84162 14.9447C2.98857 14.898 3.10756 14.7993 3.17624 14.6662C3.24332 14.5374 3.25371 14.39 3.20619 14.2523C3.13112 14.0251 2.9147 13.8724 2.66673 13.8724ZM2.84242 8.35484L0.746868 7.69566C0.687371 7.67715 0.626677 7.6675 0.566382 7.6675C0.321608 7.6675 0.105983 7.8187 0.0285176 8.04473C-0.0669163 8.33555 0.0967991 8.64605 0.392684 8.73669L2.48904 9.40011C2.54374 9.41669 2.60204 9.42479 2.66793 9.42479C2.9151 9.42479 3.13232 9.27012 3.20739 9.0414C3.25411 8.90679 3.24292 8.76176 3.17584 8.63293C3.10676 8.50025 2.98857 8.40151 2.84242 8.35484ZM5.58565 4.71915C5.68827 4.85839 5.85917 4.94132 6.04285 4.94132C6.16304 4.94132 6.27565 4.90467 6.37547 4.83332C6.49646 4.75 6.57633 4.62465 6.60068 4.48155C6.62504 4.33614 6.5903 4.19073 6.50126 4.0727L5.20591 2.3455C5.0957 2.20163 4.9268 2.1187 4.74272 2.1187C4.62252 2.1187 4.50713 2.15573 4.4085 2.22477C4.28671 2.31001 4.20645 2.43729 4.18329 2.58271C4.16013 2.72658 4.19687 2.87044 4.28631 2.98693L5.58565 4.71915ZM11.5006 3.22915C11.8144 3.22915 12.0692 2.98269 12.0692 2.67952V0.543464C12.0692 0.244154 11.814 0 11.5006 0C11.1867 0 10.9315 0.243768 10.9315 0.543464V2.67952C10.9315 2.98269 11.1867 3.22915 11.5006 3.22915ZM16.6312 4.83717C16.7267 4.90544 16.8397 4.94132 16.9583 4.94132C17.1415 4.94132 17.3132 4.85723 17.4171 4.71683L18.7164 2.98423C18.8046 2.8689 18.8402 2.72619 18.8174 2.58271C18.7943 2.43729 18.714 2.30962 18.5918 2.22438C18.4932 2.15534 18.3782 2.11908 18.2584 2.11908C18.0767 2.11908 17.905 2.2024 17.7976 2.3428L16.4999 4.0727C16.4112 4.19073 16.3761 4.33575 16.4004 4.48116C16.4248 4.62658 16.5051 4.75 16.6312 4.83717ZM22.6088 14.5566L20.5097 13.8986C20.453 13.8813 20.3943 13.8724 20.3356 13.8724C20.0904 13.8724 19.8672 14.0286 19.7929 14.2512C19.6951 14.5381 19.858 14.849 20.1571 14.9443L22.2546 15.6023C22.3098 15.6185 22.368 15.6266 22.4331 15.6266C22.6783 15.6266 22.8935 15.4773 22.971 15.254C23.0672 14.9636 22.9047 14.6508 22.6088 14.5566ZM20.3328 9.42479C20.3979 9.42479 20.4562 9.41708 20.5073 9.40165L22.6072 8.74325C22.9035 8.64913 23.0676 8.33825 22.9734 8.04936C22.8959 7.82256 22.6783 7.67059 22.4315 7.67059C22.3728 7.67059 22.3153 7.67946 22.2598 7.69643L20.1599 8.35484C20.0129 8.40151 19.894 8.50025 19.8253 8.63293C19.7586 8.76176 19.7478 8.9091 19.7953 9.04603C19.8696 9.27282 20.0856 9.42479 20.3328 9.42479ZM14.5956 22.5555H8.23784C7.95712 22.5555 7.72912 22.7753 7.72912 23.0469C7.72912 23.318 7.95672 23.5383 8.23784 23.5383H14.596C14.8771 23.5383 15.1047 23.3184 15.1047 23.0469C15.1047 22.7753 14.8763 22.5555 14.5956 22.5555ZM14.5956 24.275H8.23784C7.95712 24.275 7.72912 24.4948 7.72912 24.7664C7.72912 25.0379 7.95672 25.2578 8.23784 25.2578H14.596C14.8771 25.2578 15.1047 25.0379 15.1047 24.7664C15.1047 24.4948 14.8763 24.275 14.5956 24.275ZM13.2803 26.0172H9.4657C9.18499 26.0172 8.95698 26.2371 8.95698 26.5086C8.95698 26.7801 9.18459 27 9.4653 27H13.2799C13.5606 27 13.7886 26.7801 13.7886 26.5086C13.7886 26.2371 13.561 26.0172 13.2803 26.0172Z" fill="#979C9E"/>
</svg>
